<svg width="38" height="38" viewBox="0 0 38 38" fill="none" xmlns="http://www.w3.org/2000/svg">
<path d="M12.6885 36.495V29.3983L6.72374 33.2433C6.33467 33.4941 5.81583 33.382 5.56494 32.9929L0.13381 24.5675C-0.116958 24.1784 -0.0048597 23.6596 0.384208 23.4087L7.74078 18.6667L0.384208 13.9246C-0.0048597 13.6737 -0.117081 13.155 0.13381 12.7658L5.56494 4.34043C5.81583 3.95136 6.33455 3.83914 6.72374 4.09003L12.6885 7.93498V0.838326C12.6885 0.37535 13.0639 0 13.5267 0H23.5509C24.0139 0 24.3892 0.37535 24.3892 0.838326V7.93498L30.354 4.09003C30.7431 3.83914 31.262 3.95136 31.5128 4.34043L36.944 12.7658C37.1949 13.1549 37.0826 13.6737 36.6936 13.9246L29.3371 18.6667L36.6936 23.4087C37.0826 23.6596 37.1949 24.1783 36.944 24.5675L31.5128 32.9929C31.262 33.382 30.7432 33.4941 30.354 33.2433L24.3892 29.3983V36.495C24.3892 36.958 24.0139 37.3333 23.5509 37.3333H13.5267C13.0639 37.3333 12.6885 36.958 12.6885 36.495Z" fill="#EBFFE2"/>
<path d="M35.5055 13.4125L30.33 5.38363L23.3152 9.90537V1.55957H13.7628V9.90537L6.74793 5.38363L1.57251 13.4125L9.72341 18.6667L1.57251 23.9208L6.74793 31.9497L13.7628 27.428V35.7738H23.3152V27.428L30.33 31.9497L35.5055 23.9208L27.3546 18.6667L35.5055 13.4125Z" fill="#CBFC9C" stroke="#008245" stroke-width="2" stroke-miterlimit="10" stroke-linecap="round" stroke-linejoin="round"/>
<g clip-path="url(#clip0_9_1321)">
<path opacity="0.1" d="M24.776 14.7134C25.1164 15.3102 25.305 16.1669 25.3176 16.8992C25.3213 17.1106 25.2475 17.3141 25.1272 17.4879L22.7111 20.9777L19.4341 24.3633C19.2272 24.5595 18.9514 24.6663 18.6663 24.6605V24.6852C18.5232 24.6862 18.3814 24.6582 18.2494 24.6029C18.1175 24.5475 17.9981 24.466 17.8985 24.3633L15.3351 21.7144C14.8607 21.2241 14.4278 20.6953 14.0409 20.1334L12.2272 17.4994C12.0935 17.3185 12.0117 17.1025 12.0173 16.8776C12.0353 16.1513 12.2243 15.3072 12.5617 14.7179C12.9542 14.0325 13.5372 13.4757 14.24 13.1151C14.9427 12.7545 15.7351 12.6057 16.5208 12.6867C17.3065 12.7676 18.0518 13.0749 18.6663 13.5712C19.28 13.072 20.0257 12.7623 20.8125 12.6799C21.5992 12.5975 22.393 12.7459 23.0968 13.107C23.8006 13.4681 24.3841 14.0263 24.776 14.7134Z" fill="#008245"/>
<path d="M19.9727 21.4284H19.9046C19.8101 21.4187 19.7209 21.3803 19.6489 21.3183C19.5769 21.2563 19.5257 21.1737 19.5021 21.0817L18.592 17.6453L17.7623 20.122C17.7352 20.2041 17.6857 20.277 17.6194 20.3325C17.5531 20.3879 17.4726 20.4238 17.387 20.4361C17.3014 20.4483 17.2141 20.4364 17.1349 20.4017C17.0557 20.367 16.9878 20.3108 16.9388 20.2396L15.9605 18.7908L15.1556 19.2242C15.0872 19.2614 15.0105 19.2806 14.9327 19.2799H13.0937C12.9706 19.2799 12.8525 19.231 12.7654 19.1439C12.6783 19.0568 12.6294 18.9387 12.6294 18.8155C12.6294 18.6924 12.6783 18.5742 12.7654 18.4872C12.8525 18.4001 12.9706 18.3511 13.0937 18.3511H14.815L15.8862 17.7753C15.9889 17.7165 16.1102 17.6992 16.2253 17.7268C16.3403 17.7544 16.4405 17.8249 16.5054 17.9239L17.2236 18.9641L18.2266 15.8807C18.256 15.7876 18.3147 15.7066 18.394 15.6497C18.4732 15.5928 18.5687 15.563 18.6663 15.5649C18.7665 15.5673 18.8632 15.6025 18.9414 15.6652C19.0197 15.7278 19.0753 15.8144 19.0997 15.9116L20.0842 19.6266L20.5733 18.5988C20.6099 18.5195 20.6684 18.4523 20.7419 18.4051C20.8154 18.358 20.9008 18.3328 20.9881 18.3326H24.2388C24.3619 18.3326 24.4801 18.3815 24.5671 18.4686C24.6542 18.5557 24.7032 18.6738 24.7032 18.7969C24.7032 18.9201 24.6542 19.0382 24.5671 19.1253C24.4801 19.2124 24.3619 19.2613 24.2388 19.2613H21.2977L20.3937 21.1684C20.3546 21.2465 20.2945 21.3123 20.2202 21.3582C20.1458 21.4041 20.0601 21.4284 19.9727 21.4284ZM25.3037 16.9766C25.3513 16.187 25.1679 15.4006 24.776 14.7134C24.3841 14.0263 23.8006 13.4681 23.0968 13.107C22.3929 12.7459 21.5992 12.5975 20.8124 12.6799C20.0257 12.7623 19.28 13.072 18.6663 13.5712C18.0518 13.0749 17.3064 12.7676 16.5207 12.6867C15.735 12.6057 14.9427 12.7545 14.2399 13.1151C13.5372 13.4757 12.9541 14.0325 12.5616 14.7179C12.1691 15.4034 11.984 16.188 12.0288 16.9766C12.0319 17.0376 12.0471 17.0974 12.0734 17.1525C12.0997 17.2077 12.1367 17.2571 12.1821 17.2979C12.2275 17.3387 12.2806 17.3702 12.3382 17.3905C12.3958 17.4108 12.4569 17.4195 12.5179 17.4162C12.6394 17.4082 12.7532 17.3535 12.8351 17.2634C12.9171 17.1733 12.961 17.055 12.9575 16.9332C12.9266 16.489 12.9919 16.0432 13.149 15.6265C13.3061 15.2098 13.5512 14.8318 13.8677 14.5185C14.4609 13.9264 15.2648 13.5938 16.1029 13.5938C16.941 13.5938 17.7449 13.9264 18.3381 14.5185C18.3808 14.5623 18.4318 14.5971 18.4882 14.6209C18.5445 14.6447 18.6051 14.6569 18.6663 14.6569C18.7274 14.6569 18.788 14.6447 18.8443 14.6209C18.9007 14.5971 18.9517 14.5623 18.9944 14.5185C19.5876 13.9264 20.3915 13.5938 21.2296 13.5938C22.0677 13.5938 22.8716 13.9264 23.4648 14.5185C23.7813 14.8318 24.0264 15.2098 24.1835 15.6265C24.3406 16.0432 24.4059 16.489 24.375 16.9332C24.3699 17.056 24.413 17.176 24.4952 17.2674C24.5773 17.3588 24.692 17.4144 24.8146 17.4224C24.8761 17.4257 24.9377 17.4168 24.9957 17.3961C25.0537 17.3754 25.107 17.3434 25.1525 17.3019C25.198 17.2604 25.2349 17.2103 25.2608 17.1544C25.2868 17.0986 25.3014 17.0381 25.3037 16.9766ZM18.6663 24.6605C18.9513 24.6663 19.2272 24.5595 19.434 24.3633L22.4803 21.2674C22.5241 21.2247 22.559 21.1737 22.5827 21.1173C22.6065 21.061 22.6188 21.0004 22.6188 20.9393C22.6188 20.8781 22.6065 20.8175 22.5827 20.7612C22.559 20.7048 22.5241 20.6538 22.4803 20.6111C22.3933 20.5241 22.2752 20.4753 22.1522 20.4753C22.0291 20.4753 21.9111 20.5241 21.824 20.6111L18.7777 23.6636C18.7651 23.6815 18.7485 23.6961 18.7291 23.7062C18.7097 23.7162 18.6881 23.7215 18.6663 23.7215C18.6444 23.7215 18.6229 23.7162 18.6035 23.7062C18.5841 23.6961 18.5674 23.6815 18.5548 23.6636L15.5085 20.6483C15.4214 20.5613 15.3034 20.5124 15.1803 20.5124C15.0573 20.5124 14.9392 20.5613 14.8522 20.6483C14.8084 20.6909 14.7735 20.742 14.7498 20.7983C14.726 20.8547 14.7138 20.9152 14.7138 20.9764C14.7138 21.0376 14.726 21.0981 14.7498 21.1545C14.7735 21.2109 14.8084 21.2619 14.8522 21.3046L17.8985 24.3633C17.9981 24.466 18.1174 24.5475 18.2494 24.6029C18.3814 24.6582 18.5232 24.6862 18.6663 24.6852V24.6605Z" fill="#008245"/>
</g>
<defs>
<clipPath id="clip0_9_1321">
<rect width="13.8667" height="13.8667" fill="white" transform="translate(11.7333 11.7333)"/>
</clipPath>
</defs>
</svg>
