<svg width="194" height="38" viewBox="0 0 194 38" fill="none" xmlns="http://www.w3.org/2000/svg">
<path d="M12.6885 36.8283V29.7317L6.72374 33.5766C6.33467 33.8274 5.81583 33.7153 5.56494 33.3262L0.13381 24.9008C-0.116958 24.5118 -0.0048597 23.9929 0.384208 23.742L7.74078 19L0.384208 14.2579C-0.0048597 14.007 -0.117081 13.4883 0.13381 13.0991L5.56494 4.67374C5.81583 4.28468 6.33455 4.17245 6.72374 4.42335L12.6885 8.26829V1.17164C12.6885 0.708663 13.0639 0.333313 13.5267 0.333313H23.5509C24.0139 0.333313 24.3892 0.708663 24.3892 1.17164V8.26829L30.354 4.42335C30.7431 4.17245 31.262 4.28468 31.5128 4.67374L36.944 13.0991C37.1949 13.4882 37.0827 14.007 36.6936 14.2579L29.3371 19L36.6936 23.742C37.0827 23.9929 37.1949 24.5116 36.944 24.9008L31.5128 33.3262C31.262 33.7153 30.7432 33.8274 30.354 33.5766L24.3892 29.7317V36.8283C24.3892 37.2913 24.0139 37.6666 23.5509 37.6666H13.5267C13.0639 37.6666 12.6885 37.2913 12.6885 36.8283Z" fill="#EBFFE2"/>
<path d="M35.5055 13.7459L30.33 5.71694L23.3152 10.2387V1.89288H13.7628V10.2387L6.74793 5.71694L1.57251 13.7459L9.72341 19L1.57251 24.2541L6.74793 32.2831L13.7628 27.7613V36.1071H23.3152V27.7613L30.33 32.2831L35.5055 24.2541L27.3546 19L35.5055 13.7459Z" fill="#CBFC9C" stroke="#008245" stroke-width="2" stroke-miterlimit="10" stroke-linecap="round" stroke-linejoin="round"/>
<g clip-path="url(#clip0_9_1320)">
<path opacity="0.1" d="M24.776 15.0467C25.1164 15.6435 25.305 16.5002 25.3176 17.2325C25.3213 17.4439 25.2475 17.6474 25.1272 17.8212L22.7111 21.311L19.4341 24.6966C19.2272 24.8928 18.9514 24.9996 18.6663 24.9938V25.0185C18.5232 25.0196 18.3814 24.9915 18.2494 24.9362C18.1175 24.8809 17.9981 24.7993 17.8985 24.6966L15.3351 22.0477C14.8607 21.5574 14.4278 21.0286 14.0409 20.4667L12.2272 17.8327C12.0935 17.6518 12.0117 17.4358 12.0173 17.2109C12.0353 16.4846 12.2243 15.6405 12.5617 15.0512C12.9542 14.3658 13.5372 13.809 14.24 13.4484C14.9427 13.0879 15.7351 12.939 16.5208 13.02C17.3065 13.1009 18.0518 13.4082 18.6663 13.9045C19.28 13.4053 20.0257 13.0956 20.8125 13.0132C21.5992 12.9308 22.393 13.0792 23.0968 13.4403C23.8006 13.8014 24.3841 14.3596 24.776 15.0467Z" fill="#008245"/>
<path d="M19.9727 21.7617H19.9046C19.8101 21.752 19.7209 21.7136 19.6489 21.6516C19.5769 21.5896 19.5257 21.507 19.5021 21.415L18.592 17.9786L17.7623 20.4553C17.7352 20.5374 17.6857 20.6103 17.6194 20.6658C17.5531 20.7213 17.4726 20.7571 17.387 20.7694C17.3014 20.7816 17.2141 20.7697 17.1349 20.735C17.0557 20.7003 16.9878 20.6441 16.9388 20.5729L15.9605 19.1241L15.1556 19.5575C15.0872 19.5947 15.0105 19.6139 14.9327 19.6132H13.0937C12.9706 19.6132 12.8525 19.5643 12.7654 19.4772C12.6783 19.3901 12.6294 19.272 12.6294 19.1488C12.6294 19.0257 12.6783 18.9076 12.7654 18.8205C12.8525 18.7334 12.9706 18.6845 13.0937 18.6845H14.815L15.8862 18.1086C15.9889 18.0498 16.1102 18.0325 16.2253 18.0601C16.3403 18.0877 16.4405 18.1582 16.5054 18.2572L17.2236 19.2974L18.2266 16.214C18.256 16.1209 18.3147 16.0399 18.394 15.983C18.4732 15.9261 18.5687 15.8963 18.6663 15.8982C18.7665 15.9006 18.8632 15.9358 18.9414 15.9985C19.0197 16.0611 19.0753 16.1477 19.0997 16.2449L20.0842 19.9599L20.5733 18.9321C20.6099 18.8528 20.6684 18.7856 20.7419 18.7385C20.8154 18.6913 20.9008 18.6661 20.9881 18.6659H24.2388C24.3619 18.6659 24.4801 18.7148 24.5671 18.8019C24.6542 18.889 24.7032 19.0071 24.7032 19.1303C24.7032 19.2534 24.6542 19.3715 24.5671 19.4586C24.4801 19.5457 24.3619 19.5946 24.2388 19.5946H21.2977L20.3937 21.5017C20.3546 21.5798 20.2945 21.6456 20.2202 21.6915C20.1458 21.7374 20.0601 21.7618 19.9727 21.7617ZM25.3037 17.3099C25.3513 16.5203 25.1679 15.7339 24.776 15.0467C24.3841 14.3596 23.8006 13.8014 23.0968 13.4403C22.3929 13.0792 21.5992 12.9308 20.8124 13.0132C20.0257 13.0956 19.28 13.4053 18.6663 13.9045C18.0518 13.4082 17.3064 13.1009 16.5207 13.02C15.735 12.939 14.9427 13.0879 14.2399 13.4484C13.5372 13.809 12.9541 14.3658 12.5616 15.0512C12.1691 15.7367 11.984 16.5213 12.0288 17.3099C12.0319 17.3709 12.0471 17.4307 12.0734 17.4858C12.0997 17.541 12.1367 17.5904 12.1821 17.6312C12.2275 17.6721 12.2806 17.7035 12.3382 17.7238C12.3958 17.7441 12.4569 17.7529 12.5179 17.7495C12.6394 17.7415 12.7532 17.6868 12.8351 17.5967C12.9171 17.5066 12.961 17.3883 12.9575 17.2666C12.9266 16.8223 12.9919 16.3766 13.149 15.9598C13.3061 15.5431 13.5512 15.1651 13.8677 14.8518C14.4609 14.2597 15.2648 13.9272 16.1029 13.9272C16.941 13.9272 17.7449 14.2597 18.3381 14.8518C18.3808 14.8956 18.4318 14.9304 18.4882 14.9542C18.5445 14.978 18.6051 14.9902 18.6663 14.9902C18.7274 14.9902 18.788 14.978 18.8443 14.9542C18.9007 14.9304 18.9517 14.8956 18.9944 14.8518C19.5876 14.2597 20.3915 13.9272 21.2296 13.9272C22.0677 13.9272 22.8716 14.2597 23.4648 14.8518C23.7813 15.1651 24.0264 15.5431 24.1835 15.9598C24.3406 16.3766 24.4059 16.8223 24.375 17.2666C24.3699 17.3894 24.413 17.5093 24.4952 17.6007C24.5773 17.6921 24.692 17.7477 24.8146 17.7557C24.8761 17.759 24.9377 17.7501 24.9957 17.7294C25.0537 17.7087 25.107 17.6767 25.1525 17.6352C25.198 17.5937 25.2349 17.5436 25.2608 17.4878C25.2868 17.4319 25.3014 17.3714 25.3037 17.3099ZM18.6663 24.9938C18.9513 24.9996 19.2272 24.8928 19.434 24.6966L22.4803 21.6007C22.5241 21.5581 22.559 21.507 22.5827 21.4507C22.6065 21.3943 22.6188 21.3338 22.6188 21.2726C22.6188 21.2114 22.6065 21.1509 22.5827 21.0945C22.559 21.0381 22.5241 20.9871 22.4803 20.9444C22.3933 20.8575 22.2752 20.8086 22.1522 20.8086C22.0291 20.8086 21.9111 20.8575 21.824 20.9444L18.7777 23.9969C18.7651 24.0148 18.7485 24.0294 18.7291 24.0395C18.7097 24.0496 18.6881 24.0548 18.6663 24.0548C18.6444 24.0548 18.6229 24.0496 18.6035 24.0395C18.5841 24.0294 18.5674 24.0148 18.5548 23.9969L15.5085 20.9816C15.4214 20.8946 15.3034 20.8458 15.1803 20.8458C15.0573 20.8458 14.9392 20.8946 14.8522 20.9816C14.8084 21.0243 14.7735 21.0753 14.7498 21.1317C14.726 21.188 14.7138 21.2486 14.7138 21.3097C14.7138 21.3709 14.726 21.4315 14.7498 21.4878C14.7735 21.5442 14.8084 21.5952 14.8522 21.6379L17.8985 24.6966C17.9981 24.7993 18.1174 24.8809 18.2494 24.9362C18.3814 24.9915 18.5232 25.0196 18.6663 25.0186V24.9938Z" fill="#008245"/>
</g>
<path d="M45.5066 6.18293H57.2673V9.76226H49.2138V14.0319H56.1935V17.6112H49.2138V25H45.5066V6.18293ZM63.9292 25.3068C62.8895 25.3068 61.9435 25.1023 61.0913 24.6932C60.2561 24.2671 59.5914 23.6194 59.0971 22.7501C58.6028 21.8809 58.3556 20.773 58.3556 19.4265C58.3556 18.1652 58.6113 17.0743 59.1226 16.1539C59.634 15.2335 60.3072 14.5262 61.1424 14.0319C61.9776 13.5206 62.8639 13.2649 63.8013 13.2649C64.9092 13.2649 65.7444 13.4524 66.3069 13.8274C66.8864 14.1853 67.3636 14.5858 67.7386 15.029L67.5852 15.4636L67.9176 13.8274H71.2412V25H67.6619V22.5712L67.9431 23.3382C67.9091 23.3382 67.8068 23.4404 67.6363 23.645C67.4659 23.8325 67.2102 24.0626 66.8693 24.3353C66.5455 24.5909 66.1364 24.8125 65.6421 25C65.1649 25.2045 64.5939 25.3068 63.9292 25.3068ZM64.9518 22.3922C65.378 22.3922 65.7615 22.3325 66.1023 22.2132C66.4432 22.0769 66.7415 21.8894 66.9972 21.6508C67.2528 21.3951 67.4744 21.0798 67.6619 20.7048V17.9692C67.5256 17.5942 67.321 17.2789 67.0483 17.0232C66.7756 16.7505 66.4518 16.546 66.0768 16.4096C65.7018 16.2562 65.2842 16.1795 64.824 16.1795C64.3127 16.1795 63.8354 16.3159 63.3923 16.5886C62.9662 16.8442 62.6253 17.2022 62.3696 17.6624C62.1139 18.1226 61.9861 18.6509 61.9861 19.2475C61.9861 19.8441 62.1225 20.381 62.3952 20.8582C62.6679 21.3354 63.0258 21.7104 63.469 21.9831C63.9292 22.2558 64.4235 22.3922 64.9518 22.3922ZM78.1508 13.8274L78.4832 16.8954L78.4065 16.4352C78.7303 15.7704 79.1735 15.208 79.736 14.7478C80.2984 14.2705 80.8524 13.9041 81.3978 13.6484C81.9603 13.3927 82.3864 13.2649 82.6761 13.2649L82.4972 16.8442C81.662 16.742 80.9461 16.8783 80.3496 17.2533C79.753 17.6283 79.2928 18.1226 78.969 18.7362C78.6451 19.3498 78.4832 19.9804 78.4832 20.6281V25H74.9294V13.8274H78.1508ZM88.6627 13.8274L88.944 15.796L88.8928 15.6426C89.336 14.8926 89.8899 14.3131 90.5547 13.9041C91.2194 13.478 92.0205 13.2649 92.9579 13.2649C93.5715 13.2649 94.1084 13.3501 94.5686 13.5206C95.0459 13.691 95.4464 13.9467 95.7703 14.2876C96.0941 14.6114 96.3157 15.0375 96.435 15.5659L96.3072 15.5915C96.7844 14.8926 97.3554 14.3302 98.0201 13.9041C98.7019 13.478 99.4093 13.2649 100.142 13.2649C101.25 13.2649 102.128 13.5802 102.776 14.2109C103.44 14.8245 103.781 15.6256 103.798 16.6141V25H100.244V18.097C100.227 17.6027 100.151 17.2022 100.014 16.8954C99.878 16.5715 99.5627 16.3926 99.0684 16.3585C98.4889 16.3585 97.9946 16.563 97.5855 16.9721C97.1935 17.3641 96.8952 17.8754 96.6907 18.5061C96.5032 19.1197 96.4094 19.7588 96.4094 20.4236V25H92.8301V18.097C92.8131 17.6027 92.7193 17.2022 92.5489 16.8954C92.3955 16.5715 92.0716 16.3926 91.5773 16.3585C91.0149 16.3585 90.5376 16.563 90.1456 16.9721C89.7706 17.3641 89.4809 17.8669 89.2763 18.4805C89.0888 19.0941 88.9951 19.7247 88.9951 20.3724V25H85.4158V13.8274H88.6627ZM112.191 25.3068C111.152 25.3068 110.206 25.1023 109.353 24.6932C108.518 24.2671 107.853 23.6194 107.359 22.7501C106.865 21.8809 106.618 20.773 106.618 19.4265C106.618 18.1652 106.873 17.0743 107.385 16.1539C107.896 15.2335 108.569 14.5262 109.404 14.0319C110.24 13.5206 111.126 13.2649 112.063 13.2649C113.171 13.2649 114.006 13.4524 114.569 13.8274C115.148 14.1853 115.626 14.5858 116.001 15.029L115.847 15.4636L116.18 13.8274H119.503V25H115.924V22.5712L116.205 23.3382C116.171 23.3382 116.069 23.4404 115.898 23.645C115.728 23.8325 115.472 24.0626 115.131 24.3353C114.808 24.5909 114.399 24.8125 113.904 25C113.427 25.2045 112.856 25.3068 112.191 25.3068ZM113.214 22.3922C113.64 22.3922 114.024 22.3325 114.364 22.2132C114.705 22.0769 115.004 21.8894 115.259 21.6508C115.515 21.3951 115.737 21.0798 115.924 20.7048V17.9692C115.788 17.5942 115.583 17.2789 115.31 17.0232C115.038 16.7505 114.714 16.546 114.339 16.4096C113.964 16.2562 113.546 16.1795 113.086 16.1795C112.575 16.1795 112.098 16.3159 111.654 16.5886C111.228 16.8442 110.887 17.2022 110.632 17.6624C110.376 18.1226 110.248 18.6509 110.248 19.2475C110.248 19.8441 110.385 20.381 110.657 20.8582C110.93 21.3354 111.288 21.7104 111.731 21.9831C112.191 22.2558 112.686 22.3922 113.214 22.3922Z" fill="#008245"/>
<path d="M123.78 6.18293H127.487V21.4207H136.333V25H123.78V6.18293ZM140.465 30.369L147.905 13.8274H151.126L143.916 30.369H140.465ZM143.456 25.0511L137.985 13.8274H141.999L146.217 23.2615L143.456 25.0511ZM154.276 8.91856H157.855V13.7762H160.565V16.563H157.855V25H154.276V16.563H152.537V13.7762H154.276V8.91856ZM163.289 13.8274H166.869V25H163.289V13.8274ZM163.213 9.86453C163.213 9.33615 163.417 8.90152 163.826 8.56063C164.252 8.21974 164.704 8.0493 165.181 8.0493C165.658 8.0493 166.093 8.21974 166.485 8.56063C166.894 8.90152 167.099 9.33615 167.099 9.86453C167.099 10.3929 166.894 10.8275 166.485 11.1684C166.093 11.4923 165.658 11.6542 165.181 11.6542C164.704 11.6542 164.252 11.4923 163.826 11.1684C163.417 10.8275 163.213 10.3929 163.213 9.86453ZM180.04 24.0029C179.546 24.3949 178.924 24.7102 178.174 24.9489C177.441 25.1875 176.716 25.3068 176 25.3068C174.722 25.3068 173.606 25.0767 172.651 24.6165C171.714 24.1393 170.981 23.466 170.452 22.5967C169.941 21.7104 169.685 20.6451 169.685 19.4009C169.685 18.1567 169.967 17.0999 170.529 16.2306C171.092 15.3443 171.825 14.6711 172.728 14.2109C173.648 13.7507 174.611 13.5206 175.617 13.5206C176.623 13.5206 177.492 13.6569 178.225 13.9296C178.975 14.2023 179.614 14.5603 180.142 15.0034L178.404 17.3044C178.165 17.1169 177.833 16.9295 177.407 16.742C176.998 16.5374 176.512 16.4352 175.949 16.4352C175.455 16.4352 175.003 16.563 174.594 16.8187C174.185 17.0743 173.861 17.4237 173.623 17.8669C173.384 18.3101 173.265 18.8214 173.265 19.4009C173.265 19.9463 173.393 20.4491 173.648 20.9093C173.904 21.3695 174.253 21.736 174.697 22.0087C175.157 22.2644 175.694 22.3922 176.307 22.3922C176.699 22.3922 177.057 22.3411 177.381 22.2388C177.722 22.1195 178.012 21.9576 178.25 21.753L180.04 24.0029ZM186.419 25.2301C185.499 25.2301 184.638 25.0682 183.837 24.7443C183.053 24.4205 182.388 23.9688 181.843 23.3893L183.326 21.4207C183.871 21.915 184.374 22.2729 184.834 22.4945C185.311 22.699 185.738 22.8013 186.112 22.8013C186.402 22.8013 186.658 22.7757 186.879 22.7246C187.118 22.6564 187.306 22.5626 187.442 22.4433C187.578 22.307 187.646 22.1365 187.646 21.932C187.646 21.6422 187.527 21.4121 187.289 21.2417C187.067 21.0713 186.777 20.9349 186.419 20.8326C186.061 20.7133 185.678 20.594 185.269 20.4747C184.246 20.1509 183.505 19.6821 183.044 19.0685C182.601 18.4379 182.38 17.7561 182.38 17.0232C182.38 16.4607 182.525 15.8983 182.814 15.3358C183.121 14.7563 183.598 14.279 184.246 13.9041C184.911 13.512 185.763 13.316 186.803 13.316C187.74 13.316 188.533 13.4098 189.18 13.5973C189.828 13.7848 190.442 14.0916 191.021 14.5177L189.666 16.6141C189.342 16.3585 188.976 16.1454 188.567 15.975C188.175 15.7875 187.808 15.6852 187.468 15.6682C187.161 15.6511 186.897 15.6852 186.675 15.7704C186.47 15.8557 186.308 15.9664 186.189 16.1028C186.07 16.2392 186.01 16.384 186.01 16.5374C185.993 16.8613 186.112 17.1169 186.368 17.3044C186.641 17.4919 186.982 17.6368 187.391 17.7391C187.8 17.8413 188.2 17.9606 188.592 18.097C189.138 18.2674 189.607 18.4975 189.999 18.7873C190.391 19.0771 190.689 19.4265 190.893 19.8355C191.115 20.2276 191.226 20.7048 191.226 21.2673C191.226 21.949 191.047 22.5967 190.689 23.2103C190.348 23.8069 189.82 24.2927 189.104 24.6676C188.405 25.0426 187.51 25.2301 186.419 25.2301Z" fill="#7BCC2F"/>
<defs>
<clipPath id="clip0_9_1320">
<rect width="13.8667" height="13.8667" fill="white" transform="translate(11.7333 12.0667)"/>
</clipPath>
</defs>
</svg>
